/* XPM */
static char *_72bf51efb1848ba8375228dbee84578J2nkBDcIYC85oG2r[] = {
/* columns rows colors chars-per-pixel */
"50 50 210 2 ",
"   c #000103",
".  c #01030A",
"X  c #050A0E",
"o  c #010114",
"O  c #040B12",
"+  c #080E13",
"@  c #01011B",
"#  c #060B1B",
"$  c #091116",
"%  c #0C151D",
"&  c #0E191F",
"*  c #010123",
"=  c #030C24",
"-  c #00012C",
";  c #040B2B",
":  c #080E2A",
">  c #011224",
",  c #0E1A23",
"<  c #02102E",
"1  c #0D1729",
"2  c #111E25",
"3  c #111E29",
"4  c #000233",
"5  c #030B33",
"6  c #00033C",
"7  c #010B3B",
"8  c #03173A",
"9  c #04123C",
"0  c #09113E",
"q  c #111F34",
"w  c #111D39",
"e  c #13212B",
"r  c #0F2335",
"t  c #142534",
"y  c #182A36",
"u  c #162B3B",
"i  c #192D3C",
"p  c #1C313C",
"a  c #000343",
"s  c #010B44",
"d  c #00034C",
"f  c #000B4B",
"g  c #011445",
"h  c #061747",
"j  c #00134B",
"k  c #000453",
"l  c #000C54",
"z  c #000559",
"x  c #000C5B",
"c  c #001354",
"v  c #0C1751",
"b  c #001B54",
"n  c #00155C",
"m  c #001A5C",
"M  c #192C45",
"N  c #15254D",
"B  c #1C3344",
"V  c #1E3649",
"C  c #012258",
"Z  c #1B385A",
"A  c #223B4A",
"S  c #243E54",
"D  c #213D59",
"F  c #000764",
"G  c #000E63",
"H  c #000B6B",
"J  c #001462",
"K  c #001C64",
"L  c #081D67",
"P  c #00146C",
"I  c #001D6B",
"U  c #000E73",
"Y  c #000B7A",
"T  c #011373",
"R  c #001B73",
"E  c #081A70",
"W  c #01157A",
"Q  c #011C7B",
"!  c #022263",
"~  c #01236C",
"^  c #012A6A",
"/  c #1A3563",
"(  c #1D3C62",
")  c #022474",
"_  c #022B74",
"`  c #02247B",
"'  c #022C7B",
"]  c #013073",
"[  c #04337D",
"{  c #063B7D",
"}  c #123470",
"|  c #213E63",
" . c #264255",
".. c #25445B",
"X. c #28465D",
"o. c #2A4B5E",
"O. c #0C406D",
"+. c #184279",
"@. c #224461",
"#. c #274964",
"$. c #2A4B62",
"%. c #214D6E",
"&. c #2C4D6B",
"*. c #2D5066",
"=. c #2E526A",
"-. c #305267",
";. c #30546B",
":. c #294B79",
">. c #2B5375",
",. c #2B577C",
"<. c #2D597F",
"1. c #315674",
"2. c #345C73",
"3. c #355B7E",
"4. c #396177",
"5. c #36617E",
"6. c #3B667F",
"7. c #001A83",
"8. c #012484",
"9. c #022C83",
"0. c #002489",
"q. c #022A8B",
"w. c #023285",
"e. c #063884",
"r. c #03338B",
"t. c #04398B",
"y. c #083989",
"u. c #123681",
"i. c #013091",
"p. c #043B93",
"a. c #043D99",
"s. c #044189",
"d. c #0C428A",
"f. c #1E4A8E",
"g. c #064393",
"h. c #094797",
"j. c #084A94",
"k. c #04439B",
"l. c #09589C",
"z. c #10579E",
"x. c #224585",
"c. c #2F5B84",
"v. c #315D85",
"b. c #366182",
"n. c #396584",
"m. c #3C6986",
"M. c #356489",
"N. c #39678A",
"B. c #3B6A8B",
"V. c #3F708F",
"C. c #346692",
"Z. c #366996",
"A. c #3D6D92",
"S. c #3A6F9B",
"D. c #3E739C",
"F. c #034FA1",
"G. c #055FA9",
"H. c #115EA4",
"J. c #3C72A3",
"K. c #3D76A9",
"L. c #3E79AE",
"P. c #42728D",
"I. c #447796",
"U. c #43799B",
"Y. c #497F9C",
"T. c #4479A7",
"R. c #447CA4",
"E. c #417CAE",
"W. c #417DB1",
"Q. c #487EB4",
"!. c #4A84AB",
"~. c #4985AC",
"^. c #5189A3",
"/. c #528CAD",
"(. c #4582B4",
"). c #4886B6",
"_. c #4A89B6",
"`. c #4987B8",
"'. c #4C8CBB",
"]. c #518DB3",
"[. c #508DBB",
"{. c #4F90BE",
"}. c #5291B7",
"|. c #5192BE",
" X c #5A9CBF",
".X c #5395C1",
"XX c #569AC5",
"oX c #599CC6",
"OX c #5195C9",
"+X c #5A9EC9",
"@X c #5CA2CC",
"#X c #60A7CE",
"$X c #62A9CD",
"%X c #60A7D0",
"&X c #63ABD3",
"*X c #64AED5",
"=X c #67B1D7",
"-X c #69B1D4",
";X c #67B2D8",
":X c #68B2D9",
">X c #69B4DA",
",X c #6DB9DE",
"<X c #6FBCE1",
"1X c #70BEE2",
"2X c #73C2E6",
"3X c #75C6E9",
"4X c #77C9EB",
"5X c #79CBED",
"6X c #7BCFF0",
"7X c #7DD2F3",
/* pixels */
"7X7X4X<X*XXX'.(.W.W.W.W.W.W.W.(.'.'.|..X@X&X*X=X=X=X*X#X@X.X'.(.(.W.L.L.L.L.W.W.W.W.(.`.|.@X>X3X6X7X",
"7X7X4X2X:XXX'.(.(.(.(.(.(.(.(.'.{..XXX@X=X:X:X>X:X=X&X@XXX'.(.W.W.W.L.L.L.L.L.E.E.W.(.(.'.oX=X2X6X7X",
"7X7X4X<X&X.X'.`.(.(.).).).'.'..X.XXX@X&X,X,X,X>X>X=X&X+X.X`.E.L.L.L.L.L.L.L.L.L.L.L.W.(.`.XX*X2X5X7X",
"5X4X2X=X+X|.'.'.'.'.'.'.'.'.|.XX+X@X&X>X1X<X<X,X,X*X@XoX|.(.L.L.L.L.L.L.L.L.L.L.L.L.W.(.).XX*X1X4X5X",
"3X1X:X@X.X'.'.'.'..X.X|.|..XXX@X@X&X*X>X1X,X,X,X,X#X@XXX|.(.L.L.L.L.L.L.L.L.L.L.L.L.E.(.).XX&X,X2X3X",
"&X&X@XXX|.'.'.'.{..X.XI.A..X+X&X&X*X*X:XoX].[.OXOXQ.R.!.'.(.L.L.L.L.L.L.C.v.J.L.L.L.W.(.'..X@X*X:X;X",
"XXXXXX.X.X'.'.'.'.{.|..   ~.oX&X&X*X*X*X;.* J q.W z - & '.(.L.L.L.L.L.L.t   >.L.L.E.(.(.'..X+X@X@X+X",
"'.|..X.X.X'.(.(.'.'.'...  $.|.@X&X&X&X@X-.. g [ ` s . & ).W.L.L.L.L.L.c., u Z.L.L.W.(.'.'..XXXXX.X{.",
"'.'.{.|..X).(.(.(.'.'.'.X   R.oX@X@X@XoXo.  o 4 d o   , (.W.L.L.L.L.L.t   >.L.L.W.(.'.|..X.XXX.X'.).",
"'.'.'.'.'.(.W.W.(.'.|.'.X o T..XXXXX*.t : * f ~ ~ f * # t @.L.L.L.L.L.t   <.L.W.(.`.{..XXXoX.X'.).(.",
"(.(.).'.'.W.W.W.(.'.|.{.X @ D.'..X|.B   . - f R ` I * *   3 K.L.L.L.K.t O Z.(.(.'..XXX+X@X+X.X'.(.(.",
"(.(.(.(.).(.W.W.(.`..X|.R.  $ U.|.V 9 m c c c l G F k k j 4 + S.L.L.>.X >.(.'.'.oX@X&X&X%X+X{.(.W.W.",
"W.(.(.(.).(.(.W.(.`..X.X'.i 3 1.n.e h ~ _ _ ) ' w.y.y.w.{ ^ ; J.K.c.D u B.'..X+X*X>X>X>X&XoX'.(.W.E.",
"W.W.W.(.).(.(.(.(.'..X.X'.'.= @ . * 7 s a a d z H Q ` T T I { E.M.@ . B..XoX@X*X1X2X2X,X&XXX'.(.W.E.",
"W.W.W.(.(.(.(.(.).'..X.X{.'.v.%   . j K I R 9.t.p.F.G.F.a.` ` J.D.3 =.].&X*X:X<X3X4X3X<X*XXX'.(.W.W.",
"W.W.W.(.(.(.(.'.'..X.X.X.X.X|.e   o 4 l n ) 9.q.7.0.F.k.7.H R D n.% ].;X>X<X2X3X4X4X3X<X=X+X.X'.(.(.",
"(.(.(.(.'.'.`.'..X.XI.e , , e   * 4 c f 4 @ = : @ @ * * x k d 7 h O 2 w N N m.$X3X2X1X>X&X+X.X'.'.).",
").).'.'.{.'.'.|..X/.A.X 1 ,   o d a _ n 4 * M 3 e p & o d d 6 6 - o . 0 w = 3./.-X1X>X*X@XXX|.'.'.'.",
"'.'.'.|..X.X|..X].&.Y + #X@Xs P 9.T F P ) z.O.S %XI.9 H.H P d d d l.9 T.*X4.L } Y.>X&X@XXX.X{.'.'.'.",
"'.'..XXXoXoXXX|.2.V x. .#XP.! t.h.r.r.t.g.h.] / m.>.m l.' ' R R l g.C &. Xm.:./ X./.+X.X'.'.'.'.'.'.",
"|..XXX@X@X@X+X!.  & @X&X&X+ r.p.0.W T H H T ' C   @ ) s a 6 a d k z ` = B.@X@X&.. =..X'.).).'.'.'.'.",
"|..XXX+XI. .u t $ B.oX@X&X; r.d.y.y.y.r.w.9.' ! 7 g ^ m b n K K I ) j.> m.oX+X!.B , y ..`.`.'.'.'.{.",
".X.XXXoX5.3     , '..X@X#X5 0.` R P R Q P G x x l d a 7 7 s f s f ~ s.> m.XXXX.X$.    u '.'.'.{.{..X",
"XXXXXXoX~.X.t b.!.'.|.+X@X5 ` ^ ~ I I ) I K n m m b j g g j c c n m [ > n.XXXX.X(.M.B i '.|..X.X.X.X",
"XXXXXXXX|.5. .R.).)..XoXY.; ' _ K ~ ~ ) ) K n J J n m ! c n I K K _ s.= =.].oX|.'.D.#.X.|..XXX.X.X.X",
".X.XXXXX.X|.'.'.).'..X2.. 6 l f a a a a 4 - - - 4 6 6 6 6 a z d a k n f . X.|.|.).).'.'..XXXXXXXXXXX",
".X.X.X.X|.'.'.'.'.!.X.x.. . K _ ~ I K K m c c n K I I I ~ ) 9.' ) _ _ ; . / @.n.`.`.'.{..XXXXXXXXXXX",
".X|.{.'.'.'.'.'.'.R.  ) $   l K k a 6 6 4 - - 4 a d k l x G P P J I ` = O n = $.'.'.|..XXXoXoXXX.X.X",
"|.'.'.'.'.'.'.{..X!.. 5 R.$ _ e.' ~ ! n c c m ! ~ _ [ ) ` 9.t.9.9.r.h.%.6.N = $..X.XXXXX+X@X+XXX.X.X",
"'.'.'.'.).).'..X+X].@ @ |.B ) d.` ~ I n n n n J _ ~ ) ) ` ` y.8.0.q.p.,./.Z @ ;.@X+X+X+X@X@X+XXX.X.X",
"'.'.'.'.'.'..X@X&X X  . @X].E Q P l x c x x P H x G H R R P T Q 7.p.z T.#XS   2.&X@XXXXXoXoXXX.X'.'.",
"'.'.'.{.|.XX@X*X>X$X. @ &X*Xv y.r.' e.' w.w.t.r.` p.g.k.p.w.9.r.` j.h b.oXA X 4.#XoX.X.X.X.X|.'.'.'.",
"'.'.'..XXX@X*X>X<X-X# a =X>Xq J ' P z z H T W U W 0.0.7.U F k z k ' r !.+XB t P.@X.X{.'.'.{.'.'.(.).",
").'.'..X+X*X,X1X2X2X^.l 1.:XY.u.w.[ ) ' p.q.a.d.f 8.p.W y.~ K K a g B.|.m.% ;.}.XX|.'.'.'.'.).(.(.(.",
"(.).'..X+X:X<X3X4X4X3Xh X =X=X} K I J R q.7.p.j.a J ` k ' l f f K o !.|. .  m..X.X'.).(.).(.(.W.W.W.",
"W.W.(.'.oX=X<X3X4X3X,Xs . @X@Xi 7 c x I q.i.a.] o 5 9.x n l f s * + ).'.V   b..X'.(.(.(.(.(.W.W.E.W.",
"W.W.(.'.XX*X,X2X2X<XoX5 . [..X#.0 s b K ` 0.k.O. .9 e.K n f c a o y (.'.B . 5..X'.(.(.(.(.(.(.W.W.W.",
"W.W.(.'.oX*X>X>X>XoX=.l . (.(.(.i o 7 c c l I f./.:.~ l a - n @ O ~.'.'.i 5 | '.).(.W.(.(.(.(.(.(.W.",
"W.W.(.|.@X&X&X&X@X|.N.x...E.E.E.v.D 9 g j j K +._.:.' ] J s s | =.'.'.).M.:.S.|.).(.W.W.(.(.(.(.(.(.",
"(.(.'..X@X@X+XXX.X'.(.W.E.L.L.L.L.J.q = 7 7 7 ( XXA.x c l K 5 !..X.X'.(.).'.{.|.).(.W.W.(.'.'.).(.(.",
"(.`.{.XXXXXX.X'.).(.W.L.L.L.L.L.L.L.<.( X O O A XXS.< 8 ; Z B..XXXXX.X'.'.'.'.|.).(.W.W.(.'.'.'.'.'.",
").'..XXX.X.X|.'.(.W.L.L.L.L.L.L.L.L.K.@..   . ..XXV.@ = O X.oX@X@X@XXX'.'.'.'.{.'.(.(.(.).|.|.'.'.'.",
"|..XXXXX.X'.'.(.W.L.L.L.L.L.L.L.L.L.L.L.E.).{.XXoX@X@X@X@X@X@X#X&X%X@X.X'.'.'.'.'.).(.).'..X.X.X|.'.",
"@X@X@X+X|.'.(.W.E.L.L.L.L.L.L.L.L.L.L.L.(.'..XoX@X&X&X&X&X&X*X*X*X*X&XXX.X{.'.|.{.'.'.'.'..X.XXXXXXX",
":X:X&X@X.X`.(.W.L.L.L.L.L.L.L.L.L.L.L.L.(.{.XX@X@X=X=X=X=X;X:X*X*X&X&X+X.X|.|..X.X'.'.'.'.|.XX@X&X*X",
"3X2X,X&XXX(.(.W.L.L.L.L.L.L.L.L.L.L.L.L.(.|.XX@X&X,X,X,X,X<X>X*X&X@X@XXX.X|.|..X|.'.'.'.'..X@X>X2X3X",
"5X4X<X&X.X(.W.W.L.L.L.L.L.L.L.L.L.L.L.L.(..XoX@X*X,X,X,X<X1X=X@X@X+XXX|.'.'.'.'.'.'.'.'..X@X>X2X5X5X",
"7X5X2X*XXX).(.W.L.L.L.L.L.L.L.L.L.L.L.W.'..X@X&X:X>X>X,X,X,X&X@XXX.X.X'.`.).).).(.(.'.'.XX*X<X4X7X7X",
"7X6X2X*XXX'.(.W.W.L.L.L.L.L.L.L.L.E.W.(.'.oX@X&X:X>X>X>X:X*X@XXX.X{.'.(.(.(.(.(.(.(.(.'.oX>X2X5X7X7X",
"7X7X2X>X@X|.).(.W.E.W.E.L.L.L.W.(.(.(.'.XX@X#X&X=X:X=X*X&X@X.X'.'.'.(.W.W.W.W.W.W.W.(.'.XX*X1X4X7X7X"
};
