/* XPM */
static char *_71bee035c754828854d3d26ab987720oOXpi39MKzKG0weW[] = {
/* columns rows colors chars-per-pixel */
"50 50 204 2 ",
"   c #5E491F",
".  c #504530",
"X  c #7F6839",
"o  c #777267",
"O  c #AB4818",
"+  c #B35C1E",
"@  c #AD721F",
"#  c #BB692E",
"$  c #B87B26",
"%  c #C25B27",
"&  c #D25F27",
"*  c #C86529",
"=  c #C56739",
"-  c #DE6B33",
";  c #D66E3B",
":  c #D37130",
">  c #E77239",
",  c #BC6D46",
"<  c #D97747",
"1  c #C27956",
"2  c #DE7F50",
"3  c #B9893A",
"4  c #BE9134",
"5  c #C1832B",
"6  c #C5932D",
"7  c #CA942E",
"8  c #CA982F",
"9  c #D38734",
"0  c #C79630",
"q  c #C99631",
"w  c #CC9A33",
"e  c #CD9D3A",
"r  c #D19E33",
"t  c #D5A135",
"y  c #D8A336",
"u  c #D3A23C",
"i  c #DAA63A",
"p  c #DEAA3D",
"a  c #E1AC3D",
"s  c #BC9449",
"d  c #AE9D79",
"f  c #C29A46",
"g  c #CA9E42",
"h  c #C79F49",
"j  c #DA8459",
"k  c #C39F55",
"l  c #E78A5D",
"z  c #CEA349",
"x  c #D1A445",
"c  c #DBAC4B",
"v  c #C8A55A",
"b  c #CBA85B",
"n  c #D9B05B",
"m  c #E6AA44",
"M  c #E6B143",
"N  c #EAB445",
"B  c #EEB948",
"V  c #F2B64B",
"C  c #F4BD4C",
"Z  c #ECBB57",
"A  c #F8BF50",
"S  c #C78667",
"D  c #D68C68",
"F  c #E4936C",
"G  c #E29B78",
"H  c #CCAB67",
"J  c #CCAC6A",
"K  c #D2AE65",
"L  c #D7B46B",
"P  c #C3AE77",
"I  c #CCAF74",
"U  c #CFAE7A",
"Y  c #DCBA73",
"T  c #D9BB7D",
"R  c #E5BD6A",
"E  c #E1BD73",
"W  c #F7C04D",
"Q  c #FCC552",
"!  c #F6C35B",
"~  c #FCC95D",
"^  c #EEC56F",
"/  c #F7C764",
"(  c #FDCB65",
")  c #FCCD6A",
"_  c #F4CB75",
"`  c #FDD173",
"'  c #FDD37C",
"]  c #3E79AE",
"[  c #407CAF",
"{  c #417DB1",
"}  c #4583B4",
"|  c #4886B7",
" . c #4988B7",
".. c #4987B8",
"X. c #4C8CBB",
"o. c #538EBC",
"O. c #5A8DB9",
"+. c #4F90BE",
"@. c #5091BF",
"#. c #5A92BD",
"$. c #6397BF",
"%. c #5395C1",
"&. c #5995C1",
"*. c #569AC5",
"=. c #599CC7",
"-. c #5A9EC9",
";. c #639BC4",
":. c #709DC4",
">. c #5DA3CC",
",. c #5FA8CF",
"<. c #63A5CD",
"1. c #6CA4CB",
"2. c #6CA5CB",
"3. c #63A8CF",
"4. c #7BA5C4",
"5. c #71A6CA",
"6. c #74AACE",
"7. c #60A7D0",
"8. c #63ABD3",
"9. c #6BADD1",
"0. c #74AED1",
"q. c #7DAFD1",
"w. c #67B1D7",
"e. c #67B2D8",
"r. c #69B4DA",
"t. c #6DB9DE",
"y. c #79B4D5",
"u. c #6FBCE1",
"i. c #70BEE2",
"p. c #73C2E6",
"a. c #75C6E9",
"s. c #77C9EB",
"d. c #79CCED",
"f. c #7BCFF0",
"g. c #7DD2F3",
"h. c #BDAF87",
"j. c #BCB28C",
"k. c #B7ADAF",
"l. c #BBB3AD",
"z. c #A9B8B9",
"x. c #D59D84",
"c. c #CFB883",
"v. c #C1B58B",
"b. c #D6BD8A",
"n. c #D1A894",
"m. c #C8BB97",
"M. c #E9AF93",
"N. c #CCAFA2",
"B. c #CCB1A8",
"V. c #D5B3A5",
"C. c #CFBEB7",
"Z. c #BFC1AD",
"A. c #BBC3BA",
"S. c #CFC29D",
"D. c #DBC392",
"F. c #EECB84",
"G. c #FCD789",
"H. c #F4D390",
"J. c #FDDE9D",
"K. c #C6C5AF",
"L. c #DACCAA",
"P. c #C6C5B0",
"I. c #C9CAB9",
"U. c #D4CABE",
"Y. c #E0CDA2",
"T. c #E1CFAA",
"R. c #E4C5B6",
"E. c #86AECB",
"W. c #91AFC6",
"Q. c #96B7CB",
"!. c #9CBAC9",
"~. c #81B4D4",
"^. c #8DBEDA",
"/. c #93BAD3",
"(. c #A7B9C4",
"). c #A6BCC5",
"_. c #A3BBC9",
"`. c #BABDC2",
"'. c #A1BED8",
"]. c #9EC1D2",
"[. c #9CC6DD",
"{. c #ABC2C9",
"}. c #B7C8CB",
"|. c #B5C9CD",
" X c #AAC6D3",
".X c #AAC6DB",
"XX c #B6CDD1",
"oX c #82C4E3",
"OX c #89CDE9",
"+X c #90C4E0",
"@X c #8BD1EF",
"#X c #A6CAE1",
"$X c #A8CDE4",
"%X c #B1D0E3",
"&X c #BBD8EA",
"*X c #BAE3F4",
"=X c #D5D7CA",
"-X c #CAD3D2",
";X c #E9DAC8",
":X c #DEE0DA",
">X c #C2DCEB",
",X c #D8E3E9",
"<X c #C9E7F4",
"1X c #FCF3EE",
/* pixels */
"g.g.s.u.8.*.X.} { { { { { { { } X.X.@.*.>.8.8.w.w.w.8.3.>.*.X.} } { ] ] ] ] { { { { } ..@.>.r.p.f.g.",
"g.g.s.p.e.*.X.} } } } } } } } X.+.%.*.>.w.e.e.r.e.w.8.>.*.X.} { { { ] ] ] ] ] [ [ { } } X.=.w.p.f.g.",
"g.g.s.u.8.*.X...} } | | | X.X.%.*.*.>.8.t.t.t.t.t.w.8.-.*...[ ] ] ] ] ] ] ] ] ] ] ] { }  .*.8.p.d.g.",
"d.s.p.w.-.@.X.X.X.X.X.X.X.X.@.*.-.>.8.r.i.u.u.t.t.8.>.=.@.} ] ] ] ] ] ] ] ] ] ] ] ] { } | *.8.i.s.d.",
"p.i.e.>.%.X.X.X.X.%.*.@.@.%.*.>.>.8.8.t.i.t.t.t.t.3.>.*.@.} ] ] ] ] ] ] ] ] ] ] ] ] [ } | *.8.t.p.p.",
"8.8.>.*.@.X.X.X.+.%.%.@.@.*.-.8.8.8.8.e.w.w.w.e.w.>.-.*.X.} ] ] ] ] ] ] ] ] ] ] ] ] { } X.%.>.8.e.e.",
"*.*.*.*.%.X.X.X.X.+.@.+.@.%.=.8.8.8.8.8.8.8.8.8.8.-.*.%.X.} ] ] ] ] ] ] ] ] ] ] ] [ } } X.%.-.>.>.-.",
"X.@.%.%.%.X.} } X.X.X.X.X.@.%.>.8.8.8.>.>.>.>.>.>.=.*.+.| { ] ] ] ] ] ] ] ] ] ] ] { } X.X.%.*.*.%.+.",
"X.X.+.@.%.| } } } X.X.X.X.X.X.=.>.>.>.=.=.>.>.>.=.*.%.X.} { ] ] ] ] ] ] ] ] ] ] { } X.@.%.%.*.%.X.| ",
"X.X.X.X.X.} { { } X.@.X.X.X.X.%.*.*.*.%.%.*.*.*.*.*.%.X.} { ] ] ] ] ] ] ] ] ] { } ..+.%.*.=.*.X.| } ",
"} } | X.X.{ { { } X.@.+.X.| | X.%.%.%.@.+.@.%.%.*.*.%.X.} { ] ] ] ] ] ] ] [ } } X.%.*.-.>.-.%.X.} } ",
"} } } } | } { { } ..%.@.X.| | X.@.@.X.+.&.1.5.5.6.0.6.1.;.o.{ { ] ] ] ] { } X.X.=.>.8.8.7.-.+.} { { ",
"{ } } } | } } { } ..%.%.X.X.X.X.X.X.X.&.Q.{.}.}.|.|.|.}._.4.o.} { { } } X.X.%.-.8.t.t.r.8.=.X.} { [ ",
"{ { { } | } } } } X.%.%.X.X.X.X.X.X.#.4.I.L.T.T.T.T.T.T.L.z.5.o.} } X.%.*.=.>.8.i.p.p.t.8.*.X.} { [ ",
"{ { { } } } } } | X.%.%.+.X.X.X.X.o.4.-XJ k f f f f f f b Y.!.5.o.X.%.>.8.8.e.u.a.s.a.u.8.*.X.} { { ",
"{ { { } } } } X.X.%.*.*.%.%.@.%.;.Q.I.J F.J.J.J.J.J.J.J.H.K Y.z.E.<.>.e.r.u.p.a.s.s.p.u.w.-.%.X.} } ",
"} } } } X.X...X.%.*.-.=.=.*.*.*.^.A.c.Y _ ) ( ( ( ( ( ( ) _ K S.{.~.8.e.t.u.p.p.p.p.i.r.8.-.%.X.X.| ",
"| | X.X.+.X.X.@.*.>.8.>.>.>.=.=.#XK.J n Z Z ! ~ Q Q Q Q ~ ) g D.}.^.8.e.r.t.t.u.i.u.r.8.>.*.@.X.X.X.",
"X.X.X.@.%.%.@.%.-.,.8.8.8.>.-.-.$XP.K p 4 v L / Q Q Q A C C q b.A.^.8.8.8.w.e.r.t.r.8.>.*.%.+.X.X.X.",
"X.X.%.*.-.=.*.=.>.8.8.8.8.8.>.>.$XP.K p   o d R Q Q C N m m 5 U l.Q.y.8.8.8.8.8.8.8.-.%.X.X.X.X.X.X.",
"@.%.*.>.>.>.-.-.>.>.>.8.8.8.8.8.$XP.K p X . X z Q V 9 * % % % = D V._.9.>.>.>.>.>.=.%.X.| | X.X.X.X.",
"@.%.*.-.>.-.*.*.%.%.*.>.8.8.8.>.$XP.K p Y T Y ! Q 9 : - > > l F D D N.W.5.<.-.-.*.%.@.X. . .X.X.X.+.",
"%.*.*.=.-.*.%.X.X.X.%.>.3.8.>.*.#XK.K p ) ` ) ~ Q : * - - - < 2 < = S `.E.<.*.*.X.X.X.X.X.X.X.+.+.%.",
"*.*.*.=.*.*.X.X.X.X.@.-.3.3.<.=..XP.J i C Q Q Q Q 9 * * % % % % * = 1 `.E.<.*.%.X.X.X.X.X.@.%.%.%.%.",
"*.*.*.*.*.%.X.X.| | %.>.3.0.~.6..XA.P z M C Q Q Q N 9 # + + # , 1 S U.q.<.-.=.@.X.| X.X.@.%.*.*.*.*.",
"*.*.*.*.%.@.X.X.| X.%.1.].=X;X;X{. XXXv.z m B C C C M p r f U.,X,X&X6.*.>.>.-.@.| | X.X.%.*.*.*.*.*.",
"*.%.%.%.@.X.X.X.X.X.;.].Z.U H H S.A.{.-XJ x i a a a p r g D. X~.6.1.=.-.>.>.-.@. . .X.+.*.*.*.*.*.*.",
"%.@.+.X.X.X.X.X.o.&.!.Z.b.Y E E T m.I.:XH u y p p p p w h T.[.1.=.*.=.>.8.>.>.%.X.X.@.%.*.=.=.*.*.%.",
"@.X.X.X.X.X.X.+.=.q.I.c.E F.G.G.E T D.Y.n c M N M M a r h L.[.0.>.>.>.8.8.8.>.*.%.%.*.*.-.>.-.*.%.%.",
"X.X.X.X.| | X.*.0.>XI Y ^ ( C N ^ R z 6 Z / ( ~ Q Q B i z D.{.q.9.8.8.8.8.8.3.>.>.-.-.-.>.>.-.*.%.%.",
"X.X.X.X.X.X.*.>.y.<XI c N N w 6 p C Q Q G.J.G.` ~ Q Q C a 6 T. Xy.>.>.>.8.8.8.8.8.>.*.*.=.=.*.%.X.X.",
"X.X.X.+.@.*.>.8.oX<XI c i u i B C Q Q Q ~ ( ` ' ) Q Q Q B q T. Xy.>.-.>.>.8.8.8.3.=.%.%.%.*.@.X.X.X.",
"X.X.X.%.*.>.8.t.oX<XI c t w p Q Q Q Q Q Q Q ~ ) ~ Q Q Q B q T.{.0.=.=.=.>.>.>.7.>.*.+.X.X.+.X.X.} | ",
"| X.X.%.-.8.t.i.OX<XI x w w p Q Q Q Q Q Q Q Q Q Q Q Q W M 6 T._.6.*.*.*.*.-.-.-.*.@.X.X.X.X.| } } } ",
"} | X.%.-.e.u.p.@X<XI g 6 8 i C Q Q Q Q Q Q Q Q C B C N i 4 T._.1.+.%.@.%.%.*.*.%.X.| } | } } { { { ",
"{ { } X.=.w.u.a.@X*Xv.b u r 6 i M N N N N N N m 0 r y y r f =XW.;.X.X.X.X.@.%.%.X.} } } } } { { [ { ",
"{ { } X.*.8.t.p.p.oXXXv.b u r 8 6 6 6 6 6 6 6 6 w y t e v S.Q.$.o.X.X.X.X.+.%.%.X.} } } } } } { { { ",
"{ { } X.=.8.r.t.r.8.~.z.j.b u 8 6 6 6 6 6 6 6 6 r t e b v._.;.o.X.X.X.X.X.X.%.%.| } { } } } } } } { ",
"{ { } @.>.8.8.8.>.*.X.q.z.h.v w q 7 q w e e e q 6 w v v.).5.X.o.@.@.X.| | X.%.%.| } { { } } } } } } ",
"} } X.%.>.>.-.*.%.X.} { :.(.h.3 $ $ $ 3 k k s 3 @ 3 m.).5.X.@.%.%.%.X.} | X.+.@.| } { { } X.X.| } } ",
"} ..+.*.*.*.%.X.| } { ] ] O.%XG ; & < M.1X1XR.1 O n.z.E.<.%.%.*.*.*.%.X.X.X.X.@.| } { { } X.X.X.X.X.",
"| X.%.*.%.%.@.X.} { ] ] ] O..Xx.j 2 j F ;X,XC.S , S B._.0.=.=.>.>.>.*.X.X.X.X.+.X.} } } | @.@.X.X.X.",
"@.*.*.*.%.X.X.} { ] ] ] ] } :.k.B.V.V.V.(.Q.(.l.N.N.`./.9.>.>.3.8.7.>.%.X.X.X.X.X.| } | X.%.%.%.@.X.",
">.>.>.-.@.X.} { [ ] ] ] ] ] ] E.'..X.X.X;.@.5.[.&X&X+Xy.8.8.8.8.8.8.8.*.%.X.X.@.+.X.X.X.X.%.*.*.*.*.",
"e.e.8.>.%...} { ] ] ] ] ] ] ] ] ] ] ] ] } +.*.>.>.w.w.w.w.e.e.8.8.8.8.-.%.@.@.%.%.X.X.X.X.@.*.>.8.8.",
"p.p.t.8.*.} } { ] ] ] ] ] ] ] ] ] ] ] ] } @.*.>.8.t.t.t.t.u.r.8.8.>.>.*.%.@.@.*.@.X.X.X.X.%.>.r.p.p.",
"d.s.u.8.*.} { { ] ] ] ] ] ] ] ] ] ] ] ] } %.=.>.8.t.t.t.u.i.w.>.>.-.*.@.X.X.X.X.X.X.X.X.%.>.r.p.d.d.",
"g.d.p.8.*.| } { ] ] ] ] ] ] ] ] ] ] ] { X.*.>.8.e.t.t.t.t.t.8.>.*.*.%.X...| | | } } X.X.*.8.u.s.g.g.",
"g.f.p.8.*.X.} { { ] ] ] ] ] ] ] ] [ { } X.=.>.8.e.r.r.r.e.8.>.*.%.+.X.} } } } } } } } X.=.r.p.d.g.g.",
"g.g.p.r.>.@.| } { [ { [ ] ] ] { } } } X.*.>.3.8.w.e.w.8.8.>.%.X.X.X.} { { { { { { { } X.*.8.i.s.g.g."
};
