/* XPM */
static char *da2ec10140214449e846cb515caa7649kNfLwnStgBDCvkfR[] = {
/* columns rows colors chars-per-pixel */
"50 50 225 2 ",
"   c #0A0402",
".  c #1B0B06",
"X  c #1B1916",
"o  c #210D06",
"O  c #22130B",
"+  c #2A140C",
"@  c #36170B",
"#  c #2A1D16",
"$  c #361D13",
"%  c #322216",
"&  c #3A2617",
"*  c #1D2C3B",
"=  c #272426",
"-  c #362D2A",
";  c #222B34",
":  c #2D3237",
">  c #393637",
",  c #411D12",
"<  c #432515",
"1  c #4A2919",
"2  c #572916",
"3  c #4D331D",
"4  c #58351A",
"5  c #662B14",
"6  c #772F13",
"7  c #65391B",
"8  c #753419",
"9  c #4F3528",
"0  c #4A382F",
"q  c #463A36",
"w  c #583D36",
"e  c #663C2B",
"r  c #773C26",
"t  c #643E32",
"y  c #6B411C",
"u  c #79481C",
"i  c #524135",
"p  c #594638",
"a  c #694428",
"s  c #744929",
"d  c #7E532E",
"f  c #664B37",
"g  c #744D38",
"h  c #68533C",
"j  c #765537",
"k  c #1F364C",
"l  c #253B4B",
"z  c #323E4B",
"x  c #403C42",
"c  c #35444E",
"v  c #2B465A",
"b  c #394A58",
"n  c #2D4C62",
"m  c #31516C",
"M  c #395468",
"N  c #375B76",
"B  c #3B657D",
"V  c #48494A",
"C  c #554945",
"Z  c #4F524F",
"A  c #595248",
"S  c #454B55",
"D  c #47535A",
"F  c #565757",
"G  c #695749",
"H  c #6C5A4D",
"J  c #6E6250",
"K  c #475A65",
"L  c #575D63",
"P  c #415E76",
"I  c #4B626D",
"U  c #586568",
"Y  c #466478",
"T  c #556A74",
"R  c #5E7175",
"E  c #6F706E",
"W  c #873819",
"Q  c #983D17",
"!  c #97431F",
"~  c #A9471B",
"^  c #B8491A",
"/  c #854622",
"(  c #954924",
")  c #8B542A",
"_  c #985926",
"`  c #845834",
"'  c #935637",
"]  c #A75A2A",
"[  c #B5562A",
"{  c #B55B32",
"}  c #9F612E",
"|  c #976334",
" . c #AF6A2F",
".. c #A76734",
"X. c #B86632",
"o. c #C34E1A",
"O. c #C9521B",
"+. c #D95B1C",
"@. c #CF5B23",
"#. c #C56E34",
"$. c #C86938",
"%. c #D8733D",
"&. c #E56828",
"*. c #E77336",
"=. c #EF7634",
"-. c #875A47",
";. c #9A5F45",
":. c #9C725A",
">. c #B4724D",
",. c #BC7A53",
"<. c #CA7849",
"1. c #DA7D4A",
"2. c #E37B42",
"3. c #AB866C",
"4. c #B18B75",
"5. c #C98258",
"6. c #D68658",
"7. c #EC8447",
"8. c #F2874A",
"9. c #E38A57",
"0. c #ED9159",
"q. c #F3945C",
"w. c #F6995F",
"e. c #C98C65",
"r. c #DC9365",
"t. c #C89374",
"y. c #E89A68",
"u. c #F59C64",
"i. c #F99D67",
"p. c #F7A36D",
"a. c #EDAB7B",
"s. c #F1AA75",
"d. c #F8AA75",
"f. c #335D83",
"g. c #356182",
"h. c #3B6484",
"j. c #3C698A",
"k. c #396A94",
"l. c #3F7196",
"z. c #3C73A4",
"x. c #3E79AE",
"c. c #446C85",
"v. c #4A738A",
"b. c #577686",
"n. c #416F93",
"m. c #437394",
"M. c #487A99",
"N. c #567D90",
"B. c #667981",
"V. c #467BA2",
"C. c #447BA4",
"Z. c #417CAE",
"A. c #417DB1",
"S. c #4C809E",
"D. c #568398",
"F. c #758A93",
"G. c #4B84AB",
"H. c #4C85A9",
"J. c #548BA8",
"K. c #5E95AC",
"L. c #4583B4",
"P. c #4886B6",
"I. c #4B89B6",
"U. c #4987B8",
"Y. c #4C8CBB",
"T. c #528EB2",
"R. c #4F90BE",
"E. c #5795B6",
"W. c #5192BE",
"Q. c #66A2BA",
"!. c #5395C1",
"~. c #5699C5",
"^. c #599CC6",
"/. c #5A9EC9",
"(. c #5EA1C5",
"). c #5CA2CB",
"_. c #62A7CB",
"`. c #60A7D0",
"'. c #63ACD3",
"]. c #67B1D7",
"[. c #6EB6D6",
"{. c #67B2D8",
"}. c #69B4DA",
"|. c #6DB9DE",
" X c #6FBCE1",
".X c #70BEE2",
"XX c #73C2E6",
"oX c #77C8EB",
"OX c #79CCED",
"+X c #7BCFF0",
"@X c #7DD2F3",
"#X c #8A8F90",
"$X c #AB968C",
"%X c #889CA2",
"&X c #95A6AC",
"*X c #9DB2B8",
"=X c #ADAAA8",
"-X c #A9B7BA",
";X c #EBAA82",
":X c #EDB889",
">X c #F6B885",
",X c #F8C595",
"<X c #D3C6BA",
"1X c #F7D5AD",
"2X c #F5D8B8",
"3X c #A8BBC2",
"4X c #ADC2C9",
"5X c #B7C4C8",
"6X c #B8CDD5",
"7X c #BBD2D9",
"8X c #C5CCCB",
"9X c #D6CBC3",
"0X c #C7D5D8",
"qX c #E4D7CB",
"wX c #DEE2DF",
"eX c #F1E5D5",
"rX c #C8DCE1",
"tX c #D8E5E8",
"yX c #EAEAE5",
"uX c #E3ECEC",
"iX c #EBEEEB",
"pX c #E7F1F2",
"aX c #EBF2F3",
"sX c #F5F8F7",
"dX c #FAFCFB",
/* pixels */
"@X@XoX X'.~.Y.L.A.A.A.A.A.A.A.L.Y.Y.W.!.).'.'.].].].'.`.).!.Y.L.L.A.x.x.x.x.A.A.A.A.L.U.W.).}.XX+X@X",
"@X@XOXXX{.~.Y.L.L.L.L.L.L.L.L.Y.R.!.~.).].{.{.}.{.].'.).~.Y.L.A.A.A.x.x.x.x.x.Z.Z.A.L.L.Y.^.].XX+X@X",
"@X@XoX X'.!.Y.U.L.L.P.P.P.Y.Y.!.!.~.).'.|.|.|.}.}.].'./.!.U.Z.x.x.x.x.x.x.x.x.x.x.x.A.L.I.~.'.XXOX@X",
"OXOXXX]./.W.Y.Y.Y.Y.Y.Y.Y.Y.W.~./.).'.}..X X|.|.|.'.).^.W.L.x.x.x.x.x.x.x.x.x.x.x.x.A.L.P.~.'..XOXOX",
"XX.X{.).!.Y.Y.Y.Y.!.!.W.W.!.~.).).'.'.}..X|.|.|.|.`.).~.W.L.x.x.x.x.x.x.x.x.x.x.x.x.Z.L.P.~.'.|.XXXX",
"'.'.).~.W.Y.Y.Y.R.!.!.W.W.!./.'.^.J.M.M.M.M.K._.].).E.M.h.N N k.z.x.x.x.x.x.x.x.x.x.A.L.Y.!.).'.{.{.",
"~.~.~.!.!.Y.Y.Y.Y.R.W.R.W.!.~.c.T J j j p p F Y c.B K C p f f Z M N x.x.x.x.x.x.x.Z.L.L.Y.!./.).)./.",
"Y.W.!.!.!.Y.L.L.Y.Y.Y.Y.Y.G.c.J -.d y 4 < < 3 q C i 0 1 1 4 4 a f A m f.z.x.x.x.x.A.L.Y.Y.!.~.~.!.R.",
"Y.Y.R.W.!.P.L.L.L.Y.Y.Y.G.c.C } ) g p > - # + , 5 5 , @ # > > p s s q V h.z.x.x.A.L.Y.W.!.!.~.!.Y.P.",
"Y.Y.Y.Y.Y.L.A.A.L.Y.W.I.N p #.s = v m.G.Y = . . o . . . = g.z.m * & X.| S f.x.A.L.U.R.!.~.^.!.Y.P.L.",
"L.L.P.Y.Y.A.A.A.L.Y.C.K j _ s m m.l.M < 6 { $.<.<.5.<.$.~ 2 > v f.j.k > a i m L.Y.!.~./.)./.!.Y.L.L.",
"L.L.L.L.P.L.A.A.L.U.m.A s s K l.c.L g ~ $.9.y.y.a.:X:Xa.y.,.! G D N k.j.Z f G N ^.).'.'.`./.R.L.A.A.",
"A.L.L.L.P.L.L.A.L.U.K d u i n.Y F.#X4.1.q.p.u.q.q.u.a.>X>X:X6.$X#Xb.N L.M h ` H S._.}.}.'.^.Y.L.A.Z.",
"A.A.A.L.P.L.L.C.n.m.p ) s c m.R *X0XqX:Xu.q.7.*.&.&.2.0.p.:X2XqX8X&XK V.j.F ` ..M _.XX|.'.~.Y.L.A.Z.",
"A.A.A.L.L.L.Z.N : &  .a Z Y S 0XuXsXdXyX7.&.+.o.^ ^ O.+.&.%.dXdXsXtX-Xb J.v.Z ..D Q..X X'.~.Y.L.A.A.",
"A.A.A.L.L.C.M f _ | l n M B.6XaXdXdXiX0X>.[ Q W 6 6 W ~ [ ,.tXsXdXsXuX*Xb.J.J.O _ R E. X]./.!.Y.L.L.",
"L.L.L.L.Y.l.C s ` U M.D H 4.wXdXdXaXtX7X3.s t F K K C e g =X0XtXaXdXsX9X:.J D O _ R E.}.'./.!.Y.Y.P.",
"P.P.Y.Y.R.l.p y h M.H.C ' r.2XdXaXtX0X4XR F T D.J.H.v.K L F.7XrXtXaXdX2Xe.` - O ] J D.(.).~.W.Y.Y.Y.",
"Y.Y.Y.W.!.m.p y h v.Y s X.q.>X2X9X5X3X%XN M.E.).`.).W.T.M.I *X4X8X9XeX1Xs...1 . _ s U T.~.!.R.Y.Y.Y.",
"Y.Y.!.~./.H.Z ) _ & @ ~ 2.w.i.+.>.$XF.c /.).).)././.^.~.W.G.K #X4.1.u.1X,Xy.(   4 7 F V.Y.Y.Y.Y.Y.Y.",
"W.!.~.).).).H.K w 7 @ X.q.p.i.+.^ 6 q T.)./.^.~.!.!.W.Y.Y.Y.B w W o.&.>X,Xy.]   4 7 F m.P.P.Y.Y.Y.Y.",
"W.!.~./.)./.W.Y : < < <.u.i.8.O.Q e K E.)./.~.~.!.Y.Y.U.P.Y.m.S r ^ @.u.,Xa.>.  1 i Y G.I.I.Y.Y.Y.R.",
"!.!.~.^./.~.!.h.: 2 1 5.p.u.*.^ W C v./.^.!.!.!.W.Y.P.L.L.L.L.M t ! O.7.>X>X5.. 2 S c.I.Y.Y.Y.R.R.!.",
"~.~.~.^.~.!.Y.g.> W 1 5.d.q.&.^ 6 V M./.!.W.Y.Y.Y.Y.L.L.L.L.Y.N w Q ^ =.d.>Xe.. 5 S l.Y.Y.R.!.!.!.!.",
"~.~.~.~.~.!.Y.g.> W 1 e.d.w.&.^ 6 V m.!.Y.Y.Y.Y.Y.Y.L.L.L.Y.Y.N w Q ^ =.u.d.5.o 5 S l.Y.W.!.~.!.!.!.",
"!.!.~.~.!.W.Y.g.; $ < e.>Xp.&.O.Q w M L.P.L.L.L.Y.Y.Y.Y.Y.R.G.D e ~ O.8.d.d.,.. 2 b l.Y.!.~.~.~.~.~.",
"!.!.!.!.W.Y.Y.g.: 1 @ 5.>X>X7.+.^ 8 x C.P.L.L.P.Y.Y.Y.Y.R.!.m.p W ^ &.i.d.0.] . 4 V Y I.!.~.~.~.~.~.",
"!.W.R.Y.Y.Y.C.K 0 1 @ >.a.,Xw.+.{ -.L N L.L.L.Y.Y.W.!.!.!.!.P E ;.$.7.p.i.2.(   4 9 K G.~.^.^.~.!.!.",
"W.Y.Y.Y.Y.Y.l.F a & - ' r.>X>X9.t.$X%XI V.C.L.Y.Y.!.W.W.T.J.R &X$Xt.a.p.8.$.6   4 7 F H./.)./.~.!.!.",
"Y.Y.Y.Y.P.P.h.G u # M.f { u.2XsXtX0X6X-XM h.V.Y.!.!.T.H.c.S 6X6XrXtXyXu.=.Q +   s s R T.).)./.~.!.!.",
"Y.Y.Y.Y.Y.Y.V.U f 3 B V -.t.yXdXdXpXrX6X#Xt q b N N S 0 f 3X7XtXaXdXdX9X,.G c O  .E K.~.^.^.~.!.Y.Y.",
"Y.Y.Y.R.W.~.^.v.V / l v.R E 0XsXdXsXuX0X5.[ / r e e r ! { t.tXpXsXsXaX-XE b.Y O _ U M.!.!.!.W.Y.Y.Y.",
"Y.Y.Y.!.~.).'.E.T e 0 v.D.D.F.tXaXsXaXyXy.%.@.^ ~ ~ ^ @.2.y.uXsXsXuX0XB.N.m.I 4 _ L m.Y.Y.R.Y.Y.L.P.",
"P.Y.Y.!./.'.|.|.K.= s I J.Q.T -X0XtXyXeX,Xp.7.*.*.*.*.7.q.p.eXyXuX6X%XN H.h.V ..d I C.Y.Y.Y.P.L.L.L.",
"L.P.Y.!./.{. XXXQ.X / D J.}._.b %X5X<X,X1X1X1X>Xd.d.d.d.p.w.;X<X-XF.v W.I.P p #.l m.P.L.P.L.L.A.A.A.",
"A.A.L.Y.^.]. XoX[.Y a A b.(.).G.Y A ) @.0.p.>X,X,Xd.>Xp.8.+.^ -.F Y L.N b g _ ` N C.L.L.L.L.A.A.Z.A.",
"A.A.L.Y.~.'.|.XX|._.S f A K N L.n.N V 5 ( $.%.1.6.1.1.%.[ 8 t D b v b f ` ) g I C.A.L.L.L.L.L.A.A.A.",
"A.A.L.Y.^.'.}.}.}.'.m.Z p p G n N g.f.b C 8 8 8 8 r 8 8 5 $ b l * : j ) u f U V.P.L.A.L.L.L.L.L.L.A.",
"A.A.L.W.).'.'.'.).^.Y.h.Z f ` % z M h.N b # O + @ @ + O O X K > & 3 | ` q M H.!.P.L.A.A.L.L.L.L.L.L.",
"L.L.Y.!.).)./.~.!.Y.L.A.f.l ; ) s 3 $ & 3 < $ < W 6 < $ $ & a }  .` ; n C.Y.R.W.P.L.A.A.L.Y.Y.P.L.L.",
"L.U.R.~.~.~.!.Y.P.L.A.x.x.x.x.l z i u u 0 c v n n n V a u u u h D B W.Y.Y.Y.Y.W.P.L.A.A.L.Y.Y.Y.Y.Y.",
"P.Y.!.~.!.!.W.Y.L.A.x.x.x.x.x.k.h.N K K P n.C.G.T.T.M.v.T T T N.J.E.~.Y.Y.Y.Y.R.Y.L.L.L.P.W.W.Y.Y.Y.",
"W.!.~.~.!.Y.Y.L.A.x.x.x.x.x.x.x.z.k.k.k.z.P.W.~.^.).^.E.T.T.T.^._.`.).!.Y.Y.Y.Y.Y.P.L.P.Y.!.!.!.W.Y.",
").).)./.W.Y.L.A.Z.x.x.x.x.x.x.x.x.x.x.x.A.Y.W.^.).'.'.'.'.'.'.'.'.'.'.~.!.R.Y.W.R.Y.Y.Y.Y.!.!.~.~.~.",
"{.{.'.).!.U.L.A.x.x.x.x.x.x.x.x.x.x.x.x.L.R.~.).).].].].].{.{.'.'.'.'./.!.W.W.!.!.Y.Y.Y.Y.W.~.).'.'.",
"XXXX|.'.~.L.L.A.x.x.x.x.x.x.x.x.x.x.x.x.L.W.~.).'.|.|.|.|. X}.'.'.).).~.!.W.W.!.W.Y.Y.Y.Y.!.).}.XXXX",
"OXoX X'.!.L.A.A.x.x.x.x.x.x.x.x.x.x.x.x.L.!.^.).'.|.|.|. X.X].).)./.~.W.Y.Y.Y.Y.Y.Y.Y.Y.!.).}.XXOXOX",
"@XOXXX'.~.P.L.A.x.x.x.x.x.x.x.x.x.x.x.A.Y.!.).'.{.}.}.|.|.|.'.).~.!.!.Y.U.P.P.P.L.L.Y.Y.~.'. XOX@X@X",
"@X+XXX'.~.Y.L.A.A.x.x.x.x.x.x.x.x.Z.A.L.Y.^.).'.{.}.}.}.{.'.).~.!.R.Y.L.L.L.L.L.L.L.L.Y.^.}.XXOX@X@X",
"@X@XXX}.).W.P.L.A.Z.A.Z.x.x.x.A.L.L.L.Y.~.).`.'.].{.].'.'.).!.Y.Y.Y.L.A.A.A.A.A.A.A.L.Y.~.'..XOX@X@X"
};
