/* XPM */
static char *bb01d0a66c904e1abc35c610f553712fHRfcJyVeuE9e5ZVB[] = {
/* columns rows colors chars-per-pixel */
"50 50 213 2 ",
"   c #001616",
".  c #011917",
"X  c #001C1C",
"o  c #04231B",
"O  c #0C2D1E",
"+  c #00351E",
"@  c #001F20",
"#  c #181F25",
"$  c #002423",
"%  c #012D22",
"&  c #0B2E20",
"*  c #002728",
"=  c #002C2D",
"-  c #0D3524",
";  c #073827",
":  c #00332C",
">  c #003B2D",
",  c #123323",
"<  c #133E25",
"1  c #002F30",
"2  c #192A30",
"3  c #003433",
"4  c #003B34",
"5  c #003A3B",
"6  c #043939",
"7  c #18353B",
"8  c #25222B",
"9  c #31242F",
"0  c #352A34",
"q  c #233237",
"w  c #31313D",
"e  c #3D373E",
"r  c #4A2E3F",
"t  c #00491B",
"y  c #007C1F",
"u  c #034A27",
"i  c #00452C",
"p  c #004D2C",
"a  c #134126",
"s  c #1B4827",
"d  c #164429",
"f  c #00522C",
"g  c #0F5029",
"h  c #005B2B",
"j  c #1C572E",
"k  c #004334",
"l  c #0B4432",
"z  c #004D34",
"x  c #00423C",
"c  c #00493D",
"v  c #055435",
"b  c #005E35",
"n  c #00543D",
"m  c #005A3A",
"M  c #195733",
"N  c #24502F",
"B  c #235F33",
"V  c #006626",
"C  c #1B6E2F",
"Z  c #016235",
"A  c #01643A",
"S  c #016B3E",
"D  c #1F6533",
"F  c #007D34",
"G  c #06713B",
"H  c #01713D",
"J  c #01793F",
"K  c #25642F",
"L  c #246433",
"P  c #286735",
"I  c #256B35",
"U  c #266B39",
"Y  c #2C713C",
"T  c #2E7F3A",
"R  c #313B44",
"E  c #493445",
"W  c #49394A",
"Q  c #66364C",
"!  c #623B52",
"~  c #004142",
"^  c #004C45",
"/  c #004D48",
"(  c #005542",
")  c #005B41",
"_  c #01534A",
"`  c #01594C",
"'  c #2E4F4C",
"]  c #334753",
"[  c #016344",
"{  c #0D6041",
"}  c #016B43",
"|  c #016149",
" . c #016A48",
".. c #017242",
"X. c #017B43",
"o. c #357644",
"O. c #40454B",
"+. c #40585E",
"@. c #6E4559",
"#. c #6A4D61",
"$. c #615763",
"%. c #934566",
"&. c #934C6E",
"*. c #815264",
"=. c #9E5472",
"-. c #A85374",
";. c #80636E",
":. c #906C78",
">. c #A9637C",
",. c #C4507C",
"<. c #008827",
"1. c #01952C",
"2. c #018F36",
"3. c #01833D",
"4. c #018B3E",
"5. c #009135",
"6. c #01953E",
"7. c #019F3E",
"8. c #32913E",
"9. c #00A328",
"0. c #01B125",
"q. c #01B429",
"w. c #01BA2F",
"e. c #01A737",
"r. c #01B436",
"t. c #01B039",
"y. c #2CA139",
"u. c #32A73C",
"i. c #01C62F",
"p. c #01D22E",
"a. c #01E329",
"s. c #2F8041",
"d. c #368A44",
"f. c #359443",
"g. c #399747",
"h. c #3B9B4A",
"j. c #3BA847",
"k. c #35B644",
"l. c #3CB346",
"z. c #3EB44B",
"x. c #3EBB4C",
"c. c #3EB752",
"v. c #449450",
"b. c #42A14C",
"n. c #43AE49",
"m. c #42B946",
"M. c #43B44C",
"N. c #4AB54D",
"B. c #44BB4D",
"V. c #4ABD4E",
"C. c #46A254",
"Z. c #46AA53",
"A. c #50A75B",
"S. c #44B651",
"D. c #4CB552",
"F. c #45BC52",
"G. c #4BBD53",
"H. c #47BF5A",
"J. c #4CBE59",
"K. c #51BC55",
"L. c #51B758",
"P. c #52BD5A",
"I. c #3FC350",
"U. c #42C147",
"Y. c #45C24D",
"T. c #49C34E",
"R. c #46C352",
"E. c #4BC254",
"W. c #47CB55",
"Q. c #4DC954",
"!. c #47C158",
"~. c #4CC35A",
"^. c #4EC95B",
"/. c #52C356",
"(. c #52C955",
"). c #52C55C",
"_. c #5AC45D",
"`. c #53CA5C",
"'. c #59CB5E",
"]. c #57D05E",
"[. c #4FC660",
"{. c #4FCC62",
"}. c #55C562",
"|. c #5AC662",
" X c #56CA61",
".X c #54CB62",
"XX c #5ACC63",
"oX c #5CCE6A",
"OX c #55D162",
"+X c #5BD264",
"@X c #5DD36A",
"#X c #5FD96C",
"$X c #61CA65",
"%X c #66D46A",
"&X c #63D46C",
"*X c #62D96C",
"=X c #6BD673",
"-X c #66D976",
";X c #66DC74",
":X c #6ADB74",
">X c #6DE272",
",X c #71E276",
"<X c #74E37E",
"1X c #C85580",
"2X c #CC5B84",
"3X c #D2648A",
"4X c #D17090",
"5X c #E17798",
"6X c #BF8191",
"7X c #C08191",
"8X c #E8819F",
"9X c #F08BA6",
"0X c #FF9FB4",
/* pixels */
"'.`.Q.R.R.B.k.l.G.oXG.K.K.G.S.~.J.~. X#XOXR.R.W.R.I.k.k.x.^.~.~.~.J.F.G.G.J.).oX&X X~.E.^.Y.k.u.j./.",
"`.Q.Q.R.B.R.x.B.E. X XE.G.B.F.J.G.E.`.+X+XR.R.Q.Y.R.x.x.R.^. X~.G.F.S.F.F.G.~.oX@X X~.R.Q.m.B.Y.Y.M.",
"Q.T.T.Y.B.R.F.R.E.F.+XE.B.B.G.G.G./.'.XX].T.Y.T.Y.T.Y.T.R.R.'.).G.F.F.F.F.E.^. XoX`.~.Y.T.Y.Y.T.Y.l.",
"T.T.Y.B.Y.Y.F.R.R.z.`.R.B.F.K.N.K._.'.'.(.E.V.m.V.T.V.E.E.B././.G.G.R.F.R.~.`. X'.~.R.B.B.Y.Y.Y.U.x.",
"m.T.T.V.E.B.M.F.E.F.V.z.M.V.G.n.K._.$X/.V././.V.V.V.M.V.G.G.G.N.M.B.F.x.F.~. X XE.E.E.R.B.Y.U.U.Y.W.",
"(.(.E.V.V.F.G.~.~.).F.M.B.V.D.N.D.P._._.    P K.G.G.G.G./.).K.D.D.F.F.x.x.F.~. X X X)./.E.B.B.T.W.^.",
"*X$X'.G.V.G.). XoXoXE.B.B.h.< < < a L P.  4 l a < G.B a a d a < < a a F.S.F.G.).XX&X%XXX/.m.Y.E.`.OX",
",X:X$X_.G./.|.oX@XoX~.F.f.C y y V f g P X 3 3 * X I ; i V y y + X O D S.S.f.I U Y o.A.&X_.V.~.`.].+X",
",X:X%XXXG.).XXoXoX XJ.F.I + q.p.e.3.Z $ $ : k c 3 $ c ..e.p.q.u - D S.x.g.j X $ $ X o.=X|.G.).`.OX+X",
"%X:X%X_.P.).}.}.}.J.F.~.U X * 7.3.J S ~   b J ..` ~ 3.4.3.7.* X Y ^.F.B.< X = ~ ` $ o.=XXXG.E.). X+X",
"G.'. X).G.F.J.J.J.F.E. XY X * * * 3 ~ ~ * * x ` ` ~ } J A * ,.9X*.        X * *   v.|.|.).E.G.F.F.F.",
"G.E.F.F.J.F.J.s.a < a d & X * 6X=.W f w.3.S n x 3 S 4.H x * ,.2X#.k b F 9.0.<.X g.D.G.G.G.G.F.F.R.F.",
"V.M.z.M.~.S.G.g.j   y y V p * 5X2XQ + y 4.J [ x X J 3.J m * ! ! R k 4.4.r.p.0.  P P d.M.M.B.F.F.E.G.",
"M.l.l.B.~.x.F.~.g.  0.i.r.3.i %.%.r   X S A n 6 9 Z J 6.2.= > > : i 6.J 6.t.1.X X   s 8.l.B.F.R.E.G.",
"F.M.F.E.F.z.S.F.f.    F 4.3.7.* * X X * ~ = X 9 ,.  F i.w.~ J J z > J J 6.} 5 * * X   < V.V.V.V.F.M.",
"G.E.F.B.M.~.F.E.~.S.  3 } 6.J ~ = <.a.a.7. .x > J J % y w.~ J 6.Z 3 ` ` $ X w ,.,.w X a R.B.T.E.E.M.",
"G.G.`.XXE.F.E.'.@X%Xd.; 4 ( ^ = @ + V t.3...n c J 6.> + u ~ ^ 4.h X $ ~ m H G ] 9Xe M Z.`.~.E.~._.XX",
"~.).XX'.R.V.'.C.o.o.L ; 1 3 3 X > i p h 4.J n x } 7.m k f } ~ m i 2 Q = A 3.3.} 5X0 Y `.`.R.T.E.'.&X",
"E.+XXXE.V.f.b.B   X 9 R 7 * =   Z J Z X F S m z _ 3.) [ J 6.( 3 5 ' &.  p H 4.t.%.8 Y `.~.B.T.`.&X*X",
"M. X~.m.m.      X * ,.,.! = ~   F 4.A *   3 } 3.~ * 5 ) J J 7.) ) S ~     h t.a.* X U ~.R.R.+X>X,X+X",
"G.E.XX*X+X  F 4.A * 0X+.^ ` ` * q.<.= ~ * 3.4.J J * * 3 ( 7.a.X.` | J ~ $   t a.* 5 = d +X~.V./.&X<X",
"B.V.`.+X+Xg.g z ( * 3X] ) } ` * A [ ^ _ 5 e.e.S > %.%.W 4  .a.X.[ ..J 3.c $ o h 5 ^ : d OX+X+X`.`.+X",
"E.F.E.`.`.E.T g : X ! 7 n S x 3 ) | ` } ~ w.1.k * 5X2X=.$.x 5.) } 3.J 7.) 5 4 x 3 3 $ a ).`.`./.E.E.",
").G.F.E.E.T.V.T -   $ $ i m 3 ~ [ [ [ S 5 1.V $ * 0X5X4X:.= ~ ~ [ 3.3.7.) ^ ` | $ < O < F.B.B.V.E.B.",
"E.F.V.V.E.B.V.R.g.        $ ` ` ~ ) S ~ * * X X * 0X0X;.= ~ ~ _ ^ ( 7.7.) ^ | J   g.I a F.B.B.F.E.E.",
"G.V.B.V.E.V.V.I $ `   %.! > J ` 3 * = ~ ` ` 3     * * x | J ~ = 3 ^ J 7.i * i 7.  h.J.G.B.E.E.F.B.E.",
"&X$X'.F.V.V.E.U % ..c q 2 > J ~ = * = ~ ` } i X $ 5 m )  .6.= @ X $ % i @.%.@.i   - d. X/.F.V.E./.`.",
":X:X+X).B.E.`.b.U i } 4 * : z 3 W ! W 3 ^ } i # ! 3 n [ ..7.X X $ * X ;.-.3X>.* = 3 M d.).V.E.).'.+X",
":X:X&X'.F./.`.+XD.a Z ^ 5 = 3 * =.2X=.O.5 m i 8 %.3 ~ ) H 3.  8 7 x > 7X4X8X7X* 5 c = d  XG./.'.+X&X",
":X:X&XoXE.).'.'.`.~.  c ^ ~ ` * 6X5X3X0X* 5 3 * * ` ` ^ 5 *   %.$.| J * 6X0X7X* * X   d XX/.E._.XXXX",
"~.@X&XXXG.G.E.E.b.s     X > J * 6X0X7X* * * X     J | x 3 ` ` 3 z ..` J > * = ~   d v.oX|.G./.E.V.F.",
"~.}.J.G.J.G.G.~.g.o   Q r ; 6.3.' O.] 5 * * 3 4   J k = * 3 ..% % z ..6.) x 5 = 3 & Y J.G.G.G.G.F.R.",
"J.S.M.S.J.F.G.~.g.  X E w > Z Z : = 3 = * 4 ^ ^ X z : w ! ! z : * : z 7.[ / x * = X L S.M.G.G.G.V.F.",
"F.z.M.S.J.S.G.~.g.o $ $ 1 5 = 3 $ = 1 X $ n ` ^ = * R *.1X3X* 5 5 = * 3.( _ ( * o . L n.M.G.G.V.V.V.",
"z.S.S.F.J.M.F.G.b.s     X = ~ ` $   X *   b } _ ~ * 6X5X3X0X* ^ ^ 5 * * ^ } A * s o L S.S.V.B.B.V.F.",
"x.F.V.B.M.K.G.G.K.M.M.K O % J ~ = 3 ~ ~ * A i $ ` ` 3 ;.0X0X* ^ ` ' ,.  $ z A * P.G.D.B.F.V.M.V.R.F.",
"B.T.E.E.V.K.K._.$X|.M.K O % J = * 5 / ~ * % o $ ` ..> q O.O.* ^ [ { w   X % v g.G.G.G././.B.Y.R.R.~.",
"Y.Q.(.(.E.G._.$X=X=XN.d.s % } * * k [ ^ * X   o x J > = 3 x z 4 m Z X O j U d.G.D.G./.'.`.V.R.^.`.+X",
"Y.`.`.~.V.G.XX%X=X<XD.P.U $ c % $ z S c = X   X $ A : 3 ^ | Z % i p   L j.G.~.G.D.G.). X`.Y.R.OX#X*X",
"B.].`.T.B.E.&X:X:X<XG.J.U     s o i Z   s o       * X 3 | J   < O     F.S.F.G.G.F.J.).).~.R.^.@X;X&X",
"l.R.`.`.`. X&X:X:X-XS.S.H.~. X~.a   < z.M.L O     s N ,     ).F.F.J.^.^.!.F.z.z.z.S.~. XOX^.~.OX;X:X",
"B.R.`.+XOX X X@X-XoXH.c.H.[. X Xj.d.f.S.S.j.h.C.C.Z.Z.C.C.C.).F.F.~.{.{.^.H.z.z.S.S.~. X@XOX^.`.oX-X",
"R.R.^.OX X~.~. X X~. XF.H.~. X X~.F.F.~.~.G.~. X X X~.). X).).~.F.~.^.{.~.!.S.F.~.!.~.~. X`.^.~.).oX",
"`.R.R.R.^.~.F.~.J.F.oXH.H.~.~.~.~.G.~. X~.~.~.~.~.~.G.E.~.F.`.~.F.F.~.~.~.!.~.~. X~.~.!.!.R.^.~.~.P.",
"^.R.Y.Y.E.F.F.F.F.M. XF.S.F.F.F.E.~. X`.~.~.E.F.~.F.F.F.F.S.~.E.F.F.F.F.F.~.). X~.~.E.R.F.Y.R.E.J.J.",
"V.B.Y.R.R.B.G.G.G.F.~.M.M.F.S.l.F.`.+X`.F.F.F.E.F.F.F.E.E.F.F.B.B.B.F.M.B.E. XoX~.G.F.R.R.Y.B.B.G.P.",
"`.W.R.Y.Y.V.E././._.G.M.M.G.F.z.B.E.`.`.`.`.~.R.F.F.F.E.~.`.E.B.B.F.G.G.G.K.). X).'.`.~.R.Y.Y.R.G.J.",
"#XOX^.W.B.R.~.).XX$XG.N.N.G.F.M.B.F.E.~.+X*X+X~.E.F.E.). X+X).F.B.F.G.G.D.G.P.). X&X+X`.R.Y.R.~.).J.",
"*X#XOX^.B.~.~. X%X&XK.D.N.N.M.l.B.F.F.G.@X;X&X XE.F.~.`. X+X XG.M.M.M.G.D.D.D.P. X&X*X+X^.Y.R.~.).P.",
"G.`.OX XF.~.G.J.).|.K.K.D.n.u.y.l.G.~.G.~.oX@X XJ.M.G.~.).).oX~.z.j.j.L.L.D.D.P.).). XOXOXR.z.z.S.L."
};
