/* XPM */
static char *_c3138cbd4b84e4382f3d9abe8f472ccU7OvWjmKoSkjBem4[] = {
/* columns rows colors chars-per-pixel */
"50 50 49 1 ",
"  c #3E79AE",
". c #407CAF",
"X c #417DB1",
"o c #4583B4",
"O c #4886B7",
"+ c #4988B7",
"@ c #4987B8",
"# c #4C8CBB",
"$ c #4F90BE",
"% c #5091BF",
"& c #5395C1",
"* c #569AC5",
"= c #589CC7",
"- c #5A9EC9",
"; c #5CA2CC",
": c #5DA3CC",
"> c #5EA5CD",
", c #5FA8CF",
"< c #60A7CF",
"1 c #60A8CF",
"2 c #60A7D0",
"3 c #63ABD3",
"4 c #62ACD2",
"5 c #64ACD3",
"6 c #63ADD4",
"7 c #65AFD5",
"8 c #67B0D7",
"9 c #67B2D8",
"0 c #68B2D8",
"q c #68B4D9",
"w c #6BB7DC",
"e c #6DBADF",
"r c #6EBBE0",
"t c #6EBCE0",
"y c #70BEE2",
"u c #71C0E3",
"i c #71C0E4",
"p c #74C3E6",
"a c #73C4E6",
"s c #74C4E7",
"d c #75C6E9",
"f c #77C8EB",
"g c #77C9EB",
"h c #78CAEC",
"j c #7ACDEF",
"k c #7BCFF0",
"l c #7CCFF0",
"z c #7DD2F3",
"x c #7ED3F4",
/* pixels */
"xzft7*#oXXXXXXXo##%&>378887<:&#ooX    XXXXo@%>qslz",
"xzhi0*#oooooooo#$&*:800q083>*#oXXX     ..Xoo#=8pkz",
"zzft3&#@ooOOO##&&*:4eeeww83-&@.           Xo+*7ijz",
"jhi8-%########%*-:3qytree7>=%o            XoO*7yhj",
"sy0:&####&&%%&*:>37wyeeee<:*%o            .oO*3eis",
"33:*%###$&&%%&-3477087808:-*#o            Xo#&:709",
"***&&####$%$%&=3477733333-*&#o           .oo#&->>-",
"#%&&&#oo#####%&:333>::>>:=&$OX           Xo##&**&$",
"##$%&Oooo######=:::==:::=*&#oX          Xo#%&&*&#O",
"#####oXXo#%####&***&&**=**&#oX         Xo@$&*=&#Oo",
"ooO##XXXo#%$#OO#&&&%$%&&**&#oX       .oo#&*-:-&#oo",
"ooooOoXXo@&%#OO#%%#$#%%&*=&##oXX    Xo##=>332-$oXX",
"XoooOooXo@&&##########%&*:-*&#ooXXoo##&-7wwq3=#oX.",
"XXXoOoooo#&&##########&&->>>:=#Ooo#&&=>7yiie5*#oX.",
"XXXoooooO#&&$####OoO#%&=:34773*###&>370tdhdr7*#oXX",
"XXXoooo##&&&&&%&$#@##&-<357773-&&*>9qridffst8-&#oo",
"oooo##@#&*-==***&&##&-<773453>=**:39wruisayq6-&##O",
"OO##$##%*:3>::===**&*:37733<>:&*=>49qwetytq7:*%###",
"###%&&%&-,753>--:::-->332>::-=&&=:38780qeq3:*&$###",
"##&*-=*=:37743>::>>:-:::-==**&%&*-<3334773-&######",
"%&*:>:---:>335433>:::-=*&&%###%&&*-==:>>:=&#OO####",
"%&*-:-*&&&*:333::::>:-*&&###O###$&*&*=--*&%#++###$",
"&&*=-*&###&:<3>**=::=&&&%#Oooo###%&%&**&#######$$&",
"***=*&####%->>-&&&*-&$####oooo###$&$&**&#####%&&%&",
"*****&##OO&:::&##$%&######ooo######&*-=%#O##%&*&&&",
"&&**&%##O#&=-*%#####Oooo#####$&&$##*::-%OO##&*****",
"&&&&%#####&**&$%####Oooo####$&-*&&&->>-%++#$&*****",
"&%$######$&=*&%&%###ooo+#%&&*=:-=*=>3>:&##%&*==*&&",
"%######$&&--=&&*&####O###&&*=:>:::>333:*&&**-:-*&&",
"####OO#&-:>>:---*&&$###%&&*=-:::>33443<::---:>-*&&",
"######&:4877323<-*&%&**==-:::-:>>>:>34773:**==*&##",
"###$%*:7qeq08773:*&&=:::>>33:--:::-:>347<=&&&&%###",
"###&*>7wtytewq83:=&*:>3>3773:*&**===:>>2:&$##$##oO",
"O##&-7eyisiyeq03:**=>463377>-&#$&****---*%####Oooo",
"oO#&-0tsffdueq8>*&&-487743>-&#@@#$&%&&&&&#OoOooXXX",
"XXo#=8tdfdr043>&###*37773:*&$#Oo+####%&&#oooooXX.X",
"XXo#*7eiit7:*&&#ooO#=:>>>=&&$##@#####$&&#ooooooXXX",
"XXo#=7qwq4-&#@ooXXoo#&*-:*&%$#########&&OoXooooooX",
"XXo%:333>*#@oXX  .XXo#%&-*%$$###%%#OO#&&OoXXoooooo",
"oo#&::-*&#oXX      .Xo#&*&&&%#%%&&#oO#$%OoXXo##Ooo",
"o@$***&#OoX         Xo#&*****&&***&####%OoXXo#####",
"O#&*&&%#oX          Xo#&*=-:-==:::*####$#oXoO%%###",
"%&**&##oX           X+%*=:>>>:>132:&#####OoO#&&&%#",
":>:-%#oX.           o#&=:3333377773*&$#%$####&&***",
"006:&@oX            o$*:>8888907733-&%%&&####%*:37",
"sie3*ooX            o%*:3eeeetq73>:*&%%&%####&>qus",
"jft4&oXX            o&=>7eeety8>:-*%########&:qijj",
"zji7*OoX           .#&:30wweee3:*&&#@OOOoo##*7thzz",
"xki7*#oXX        .Xo#=>30qqq07:*&$#oooooooo#=qijzx",
"zzaq>%OoX.X.   Xooo#*:1580873:&###oXXXXXXXo#*7yhzz"
};
